<svg height="159" width="245" viewBox="392 201 245 159" style="background-color:transparent;" preserveAspectRatio="xMinYMin meet" xmlns:xlink="http://www.w3.org/1999/xlink" xmlns="http://www.w3.org/2000/svg"><g transform="matrix(1,0,0,1,-563,89)"><g transform="matrix(1,0,0,1,1034,147)"><path style="fill:none;stroke:#333333;stroke-width:3.0;" d="m14.190753931198135,3.89417399977717c5.29719756786198,-6.400184924071554 14.67927161746068,-4.132183734995935 16.737702323112334,1.198708883139804c2.057068408692256,5.329141115587113 -1.2347919741327575,13.993337695151306 -9.877620587158376,13.19387408740095c-8.642833621470322,-0.7995609134475014 -11.935374151086096,-8.263589024414703 -6.8600817359539565,-14.392582970540754z"/><path style="fill:none;stroke:#333333;stroke-width:3.0;" d="m9.800449469475254,50.00160284106687l-9.739440602850882,-0.4001210266637612c0,0 -0.13614154731309988,-17.856179260447508 0,-20.654496498968047c0.13681969072597708,-2.7984145442176818 2.88139830558026,-3.9979991786317983 5.76211546268082,-3.9979991786317983c2.8807181587895014,0 29.355127475633452,-1.3336718850811067 31.55176120443824,-0.9342319982973665c2.1959325465462722,0.4006075551494905 5.212098082212945,1.8679774681090038 5.350291088476668,5.730916339102354c0.13817297248490934,3.8643011507533918 0.2743225333095351,20.38953308563988 0.2743225333095351,20.38953308563988l-9.053985862395242,0.534986722907918"/><path style="fill:none;stroke:#333333;stroke-width:3.0;" d="m10.075314918190667,36.00836245161272l0.1361395439352184,17.591605069907928l24.008922276346038,0.39953719248088604l-1.2347819572433503,-18.92089819861747"/></g><text style="font-weight:Normal; font-size: 12px; text-anchor: middle; font-family: arial,helvetica; fill: #333333;" y="216" x="1055">«system»</text><text style="font-weight:bold; font-size: 12px; text-anchor: middle; font-family: arial,helvetica; fill: #333333;" y="233" x="1055">Actor</text></g><g transform="matrix(1,0,0,1,-470,-19)"><g transform="matrix(1,0,0,1,1029,257)"><path style="fill:none;stroke:#333333;stroke-width:3.0;" d="m0.03469242091847677,11.37604499864167l0.8276732485979085,50.251855145751215l18.217646201841685,11.347303704923467l-0.8282250812581321,-48.63116920517899"/><path style="fill:none;stroke:#333333;stroke-width:3.0;" d="m42.2660401485311,0.030449090535174955c0,0 -39.74777614915867,7.294397367341528 -40.57538988639126,9.726472138266073c-0.828227786320192,2.4315981764639956 16.56120144944954,14.589615536254005 16.56120144944954,14.589615536254005l44.71481110358417,-13.778875403917432l-20.700757919745445,-10.537251986807691z"/><path style="fill:none;stroke:#333333;stroke-width:3.0;" d="m62.96666281517355,10.568482162708769l-0.8276705435358485,50.251722758401066l-43.05890736360401,12.158083553465083l-0.9087926496507958,-48.63116920517899"/><path style="fill:none;stroke:#333333;stroke-width:3.0;" d="m6.658848393251103,30.01618390017486l5.796488133858837,4.052747472761756"/></g><text style="font-weight:bold; font-size: 12px; text-anchor: middle; font-family: arial,helvetica; fill: #333333;" y="345" x="1060">Server</text></g><g transform="matrix(1,0,0,1,-503,-31)"><g transform="matrix(1,0,0,1,1024,242)"><path style="fill:none;stroke:#333333;stroke-width:3.0;" d="m38.35197991888629,18.021531146043515l-13.089539112851712,6.289894694165685c1.561688764960984,3.7613443483054962 2.1713492422129246,8.950069588535786 1.7800814570407792,15.639538519456462l-9.968660121783799,-12.436421355961086c-4.321341926125727,3.449058811531054 -9.816283245412457,4.994745910160869 -14.69506278736782,7.519706858980005l9.418981573892088,-13.28204812434119l-11.759194649540515,-11.386382822904487c4.805030153603412,0.8930323907708608 9.77702049199162,1.9716262161006084 15.267942053190025,4.482061698497484c5.590166243979472,-7.702957968940085 5.399265977725738,-9.967891484453304 7.949475295155306,-14.81125917107432c1.4112920231236372,5.129839942670374 2.6770229119199827,10.259679885340748 1.586487188009036,15.389479856997305z"/></g></g><g transform="matrix(1,0,0,1,-637,-388)"><g transform="matrix(1,0,0,1,1044,607)"><path style="fill:none;stroke:#333333;stroke-width:3.0;" d="m7.91824,-0.1644l33.7816,1.46399c4.08874,0.177246 5.51098,3.70704 5.53464,7.79944l0.469056,81.1146c0.023666,4.09278 -4.002,10.375 -8.0909,10.2019l-33.2154,-1.407226c-4.0889,-0.173096 -4.63058,-5.28614 -4.7339,-9.37744l-2.03028,-80.3942c-0.103316,-4.09118 4.19646,-9.578 8.28518,-9.40088z"/><path style="fill:none;stroke:#333333;stroke-width:3.0;" d="m25.055304,5.998632c-0.450658,0.545554 -1.899068,0.159196 -2.055386,-0.530942c-0.124032,-0.547612 0.741648,-1.202654 1.290214,-1.08292c0.58166,0.126958 1.14433,1.154858 0.765166,1.613858z"/><path style="fill:none;stroke:#333333;stroke-width:3.0;" d="m16.70314,10.1156l14.5937,-0.703614"/><path style="fill:#333333;stroke:none;stroke-width:3.0;" d="m28.456,93.2556c-1.230258,2.0017 -6.0475,2.11254 -7.04888,-0.01294c-0.973114,-2.06542 2.08202,-5.53808 4.3518,-5.2898c1.97137,0.215576 3.73544,3.61328 2.6971,5.30274z"/><path style="fill:#fafafa;stroke:#333333;stroke-width:3.0;" d="m4.44296,14.3956l38.2564,0.056762l-0.623112,68.806l-37.3988,-0.23462z"/></g></g><text style="font-weight:Normal; font-size: 16px; text-anchor: end; font-family: Arial; fill: #ccc;" y="345" x="622">http://sketchboard.io</text></svg>